<svg width="128" height="128" viewBox="0 0 128 128" fill="none" xmlns="http://www.w3.org/2000/svg">
  <rect width="128" height="128" rx="64" fill="#F9FAFB"/>
  <circle cx="64" cy="64" r="50" fill="#F9FAFB" stroke="#E5E7EB" stroke-width="2"/>
  <circle cx="64" cy="38" r="16" fill="#EF4444"/>
  <circle cx="38" cy="77" r="16" fill="#F59E0B"/>
  <circle cx="90" cy="77" r="16" fill="#10B981"/>
  <circle cx="64" cy="64" r="16" fill="#3B82F6"/>
  <circle cx="64" cy="64" r="16" fill="white"/>
  <path d="M58 62C60.2091 62 62 60.2091 62 58C62 55.7909 60.2091 54 58 54C55.7909 54 54 55.7909 54 58C54 60.2091 55.7909 62 58 62Z" fill="#EF4444"/>
  <path d="M69 59C71.2091 59 73 57.2091 73 55C73 52.7909 71.2091 51 69 51C66.7909 51 65 52.7909 65 55C65 57.2091 66.7909 59 69 59Z" fill="#F59E0B"/>
  <path d="M73 70C75.2091 70 77 68.2091 77 66C77 63.7909 75.2091 62 73 62C70.7909 62 69 63.7909 69 66C69 68.2091 70.7909 70 73 70Z" fill="#10B981"/>
  <path d="M62 77C64.2091 77 66 75.2091 66 73C66 70.7909 64.2091 69 62 69C59.7909 69 58 70.7909 58 73C58 75.2091 59.7909 77 62 77Z" fill="#3B82F6"/>
  <path d="M54 66C56.2091 66 58 64.2091 58 62C58 59.7909 56.2091 58 54 58C51.7909 58 50 59.7909 50 62C50 64.2091 51.7909 66 54 66Z" fill="#8B5CF6"/>
</svg>
